# xmcd
#
# Track frame offsets: 
#        150
#        100655
#        152814
#        185176
#        239401
#
# Disc length: 3733 seconds
#
# Revision: 0
# Processed by: cddbd v1.5.2PL0 Copyright (c) Steve Scherf et al.
# Submitted via: ExactAudioCopy v0.99pb5
#
DISCID=3c0e9305
DTITLE=Rodin Quartett - Franz Schubert
DYEAR=2007
DGENRE=Chamber Music
TTITLE0=Streichquartett Nr. 15 G-Dur D. 887 op posth 161 - Allegro mol
TTITLE0=to moderato 
TTITLE1=Streichquartett Nr. 15 G-Dur D. 887 op posth 161 - Andante un 
TTITLE1=poco mosso 
TTITLE2=Streichquartett Nr. 15 G-Dur D. 887 op posth 161 - Scherzo. Al
TTITLE2=legro vivace - Trio. Allegretto
TTITLE3=Streichquartett Nr. 15 G-Dur D. 887 op posth 161 - Allegro ass
TTITLE3=ai 
TTITLE4=Quartettsatz Nr. 12 c-Moll D. 703 
EXTD=
EXTT0=
EXTT1=
EXTT2=
EXTT3=
EXTT4=
PLAYORDER=
